<?xml version="1.0" ?><svg viewBox="0 0 64 64" xmlns="http://www.w3.org/2000/svg"><title/><g data-name="8" id="_8"><path d="M48,19H38V12a1,1,0,0,0-1-1H9a1,1,0,0,0,0,2h5v6H4a1,1,0,0,0-1,1v8a1,1,0,0,0,1,1H14v6H4a1,1,0,0,0-1,1v8a1,1,0,0,0,1,1H14v6H8.88a1,1,0,0,0,0,2H37a1,1,0,0,0,1-1V45H48a1,1,0,0,0,1-1V36a1,1,0,0,0-1-1H38V29H48a1,1,0,0,0,1-1V20A1,1,0,0,0,48,19ZM16,13H36v6H16ZM5,27V21H25v6H5ZM5,43V37H25v6H5Zm31,8H16V45H36Zm11-8H27V37H47ZM36,35H16V29H36Zm11-8H27V21H47Z"/><path d="M6,51H4a1,1,0,0,0,0,2H6a1,1,0,1,0,0-2Z"/><path d="M4,13H6.08a1,1,0,0,0,0-2H4a1,1,0,0,0,0,2Z"/><path d="M60,21a1,1,0,0,0,1-1V12a1,1,0,0,0-1-1H51a1,1,0,0,0-1,1v8a1,1,0,0,0,1,1h6v6H51a1,1,0,0,0-1,1v8a1,1,0,0,0,1,1h6v6H51a1,1,0,0,0-1,1v8a1,1,0,0,0,1,1h9a1,1,0,0,0,1-1V44a1,1,0,0,0-1-1H59V37h1a1,1,0,0,0,1-1V28a1,1,0,0,0-1-1H59V21ZM59,51H52V45h7ZM58,35H52V29h7v6ZM52,13h7v6H52Z"/></g></svg>