<?xml version="1.0" ?><!DOCTYPE svg  PUBLIC '-//W3C//DTD SVG 1.1//EN'  'http://www.w3.org/Graphics/SVG/1.1/DTD/svg11.dtd'><svg height="512px" style="enable-background:new 0 0 512 512;" version="1.1" viewBox="0 0 512 512" width="512px" xml:space="preserve" xmlns="http://www.w3.org/2000/svg" xmlns:xlink="http://www.w3.org/1999/xlink"><g id="_x35_40_x2C__Build_x2C__design_x2C__develop_x2C__sketch_x2C__tools"><g><path d="M388.228,270.465h12.397v-63.803h-12.397V270.465z M407.27,270.465h34.929    c0.323,0,0.676-0.027,0.999-0.08v-63.723H407.27V270.465z M155.918,241.886v28.579h74.419v-28.579H155.918z M155.918,206.662    v28.578h74.419v-28.578H155.918z M236.956,334.81l0.486-0.19l0.162-0.053l0.486-0.217l0.162-0.054l0.486-0.189l0.163-0.054    l0.161-0.081l0.19-0.054l0.108-0.055h0.054l0.162-0.08l1.135-0.406l0.161-0.08l1.352-0.433l0.161-0.054l0.163-0.055    c4.727-1.566,9.67-2.594,14.775-3.106l0.271-0.026h0.243l0.054-0.027h0.216l0.271-0.027l0.243-0.027l0.271-0.027h0.27l0.243-0.025    l0.514-0.027h0.027l0.243-0.027h0.27l0.108-0.027h0.161h0.271l0.243-0.026h0.217h0.053l0.271-0.026h0.243h0.271h0.054h0.216    l0.271-0.027h0.271h0.135h0.108h0.27h0.271h0.27h0.244h0.27h0.27h0.108h0.162h0.243l0.271,0.027h0.216h0.054h0.271h0.243    l0.271,0.026h0.053h0.217l0.271,0.026h0.243h0.161l0.109,0.027h0.27l0.243,0.027h0.026l0.514,0.027l0.243,0.025h0.27l0.271,0.027    l0.243,0.027l0.271,0.027h0.216l0.026,0.027h0.271l0.271,0.026c6.915,0.676,13.533,2.351,19.719,4.917l0.162,0.053l0.459,0.19    c0-64.155,0-128.337,0-192.492c-6.348,2.702-13.182,4.484-20.34,5.159l-0.271,0.027l-0.271,0.027h-0.026l-0.216,0.027    l-0.271,0.027h-0.243l-0.271,0.025l-0.27,0.027l-0.243,0.027l-0.514,0.027h-0.026h-0.243l-0.27,0.027h-0.109h-0.161l-0.243,0.025    h-0.271l-0.217,0.027h-0.053h-0.271h-0.243l-0.271,0.027h-0.054h-0.216h-0.271h-0.243h-0.162h-0.108h-0.27l-0.27,0.027h-0.244    h-0.27l-0.271-0.027h-0.27h-0.108h-0.135h-0.271h-0.271h-0.216h-0.054l-0.271-0.027h-0.243h-0.271h-0.053l-0.217-0.027h-0.243    l-0.271-0.025h-0.161h-0.108l-0.27-0.027h-0.243h-0.027l-0.514-0.027l-0.243-0.027l-0.27-0.027l-0.271-0.025h-0.243l-0.271-0.027    l-0.216-0.027h-0.054l-0.243-0.027l-0.271-0.027c-7.104-0.675-13.776-2.43-20.367-5.159    C236.956,206.473,236.956,270.654,236.956,334.81z M269.317,168.574c-1.324-1.324-3.161-2.135-5.187-2.135    c-2,0-3.836,0.811-5.16,2.135c-1.323,1.322-2.161,3.16-2.161,5.186c0,1.999,0.837,3.836,2.161,5.16    c1.324,1.323,3.16,2.161,5.16,2.161c2.025,0,3.862-0.838,5.187-2.161c1.323-1.324,2.16-3.161,2.16-5.16    C271.478,171.734,270.641,169.896,269.317,168.574z M264.131,159.795c3.862,0,7.374,1.566,9.887,4.079    c2.512,2.512,4.078,6.022,4.078,9.886c0,3.836-1.566,7.348-4.078,9.86c-2.513,2.512-6.024,4.079-9.887,4.079    c-3.836,0-7.348-1.567-9.86-4.079c-2.512-2.513-4.079-6.024-4.079-9.86c0-3.863,1.567-7.374,4.079-9.886    C256.783,161.361,260.295,159.795,264.131,159.795z M269.317,301.26c-1.324-1.323-3.161-2.135-5.187-2.135    c-2,0-3.836,0.812-5.16,2.135c-1.323,1.324-2.161,3.16-2.161,5.187c0,1.999,0.837,3.835,2.161,5.159    c1.324,1.324,3.16,2.161,5.16,2.161c2.025,0,3.862-0.837,5.187-2.161c1.323-1.324,2.16-3.16,2.16-5.159    C271.478,304.42,270.641,302.584,269.317,301.26z M264.131,292.48c3.862,0,7.374,1.566,9.887,4.078    c2.512,2.513,4.078,6.025,4.078,9.888c0,3.835-1.566,7.347-4.078,9.859c-2.513,2.512-6.024,4.106-9.887,4.106    c-3.836,0-7.348-1.595-9.86-4.106c-2.512-2.513-4.079-6.024-4.079-9.859c0-3.862,1.567-7.375,4.079-9.888    C256.783,294.047,260.295,292.48,264.131,292.48z M126.96,270.465h22.313v-63.803H126.96l-61.994,31.9    C117.885,265.793,68.83,240.563,126.96,270.465z M144.681,473.329c-1.836,0-3.322-1.485-3.322-3.321    c0-1.838,1.486-3.323,3.322-3.323h208.402c1.837,0,3.322,1.485,3.322,3.323c0,1.836-1.485,3.321-3.322,3.321H144.681z     M266.724,485.999c-1.837,0-3.322-1.485-3.322-3.323c0-1.81,1.485-3.322,3.322-3.322h144.192c1.838,0,3.324,1.513,3.324,3.322    c0,1.838-1.486,3.323-3.324,3.323H266.724z M425.693,485.999c-1.838,0-3.324-1.485-3.324-3.323c0-1.81,1.486-3.322,3.324-3.322    h18.018c1.837,0,3.321,1.513,3.321,3.322c0,1.838-1.484,3.323-3.321,3.323H425.693z M136.47,485.62    c-1.837,0-3.323-1.485-3.323-3.322c0-1.836,1.485-3.322,3.323-3.322h68.341c1.837,0,3.322,1.486,3.322,3.322    c0,1.837-1.485,3.322-3.322,3.322H136.47z M175.854,358.635c-1.243,0-2.566,0.81-2.972,1.863    c-1.107,2.215,0.568,4.781,2.972,4.781h6.645c1.243,0,2.565-0.811,2.971-1.864c1.107-2.214-0.567-4.78-2.971-4.78H175.854z     M149.3,358.635c-1.243,0-2.539,0.81-2.972,1.863c-1.107,2.215,0.567,4.781,2.972,4.781h6.645c1.27,0,2.566-0.811,2.998-1.864    c1.108-2.214-0.594-4.78-2.998-4.78H149.3z M144.087,343.939c0-1.242-0.811-2.539-1.864-2.971    c-2.215-1.108-4.782,0.594-4.782,2.971v6.645c0,1.27,0.811,2.566,1.865,3c2.214,1.106,4.781-0.596,4.781-3V343.939z     M144.087,317.412c0-1.27-0.811-2.564-1.864-2.998c-2.215-1.106-4.782,0.595-4.782,2.998v6.619c0,1.27,0.811,2.566,1.865,2.998    c2.214,1.107,4.781-0.594,4.781-2.998V317.412z M144.087,290.859c0-1.27-0.811-2.566-1.864-2.998    c-2.215-1.107-4.782,0.595-4.782,2.998v6.619c0,1.27,0.811,2.565,1.865,2.998c2.214,1.107,4.781-0.595,4.781-2.998V290.859z     M209.052,365.279c0.946,0,1.945-0.486,2.539-1.161c-6.672,9.994-10.562,22.042-10.562,34.954c0,11.67,3.133,22.555,8.617,31.901    c4.7,7.996,11.129,14.911,18.774,20.152v-56.646c0-1.837,1.486-3.321,3.323-3.321h64.803c1.837,0,3.322,1.484,3.322,3.321v56.646    c7.645-5.241,14.074-12.156,18.774-20.152c5.483-9.347,8.617-20.231,8.617-31.901c0-17.424-7.051-33.199-18.478-44.625    c-10.454-10.453-24.23-16.91-38.979-18.233h-0.135l-0.243-0.026l-0.243-0.027h-0.188l-0.271-0.027l-0.242-0.027h-0.244h-0.026    l-0.676-0.054h-0.135h-0.108l-0.486-0.027h-0.216l-0.026-0.026h-0.243h-0.244h-0.243h-0.054l-0.189-0.027h-0.243h-0.243h-0.135    h-0.081h-0.242h-0.243h-0.244h-0.243h-0.243h-0.243h-0.107h-0.136h-0.242h-0.243l-0.189,0.027h-0.054h-0.243h-0.243h-0.243    l-0.027,0.026h-0.216l-0.486,0.027h-0.108h-0.107l-0.703,0.054h-0.026h-0.243l-0.243,0.027l-0.27,0.027h-0.189l-0.243,0.027    l-0.243,0.026h-0.135c-7.455,0.676-14.533,2.62-21.016,5.646l0,0c-6.726,3.134-12.777,7.401-17.963,12.588    c-2.782,2.783-5.321,5.862-7.563,9.131l0.082-0.163c1.107-2.214-0.568-4.78-2.972-4.78h-6.646c-1.242,0-2.566,0.81-2.971,1.863    c-1.108,2.215,0.567,4.781,2.971,4.781H209.052z M384.201,306.986c0,1.243,0.811,2.566,1.864,2.971    c2.215,1.107,4.782-0.566,4.782-2.971v-6.646c0-1.242-0.811-2.565-1.863-2.971c-2.217-1.108-4.783,0.566-4.783,2.971V306.986z     M384.201,333.54c0,1.242,0.811,2.565,1.864,2.972c2.215,1.107,4.782-0.568,4.782-2.972v-6.646c0-1.242-0.811-2.566-1.863-2.972    c-2.217-1.107-4.783,0.567-4.783,2.972V333.54z M384.201,360.093c0,1.243,0.811,2.539,1.864,2.972    c2.215,1.107,4.782-0.566,4.782-2.972v-6.645c0-1.27-0.811-2.566-1.863-2.999c-2.217-1.107-4.783,0.594-4.783,2.999V360.093z     M362.862,358.635c-1.27,0-2.566,0.81-2.999,1.863c-1.107,2.215,0.595,4.781,2.999,4.781h6.618c1.27,0,2.566-0.811,2.998-1.864    c1.107-2.214-0.594-4.78-2.998-4.78H362.862z M336.309,358.635c-1.27,0-2.566,0.81-2.998,1.863    c-1.108,2.215,0.594,4.781,2.998,4.781h6.617c1.27,0,2.566-0.811,3-1.864c1.107-2.214-0.596-4.78-3-4.78H336.309z     M390.848,273.788c0-1.243-0.811-2.566-1.863-2.972c-2.217-1.107-4.783,0.567-4.783,2.972v6.646c0,1.242,0.811,2.566,1.864,2.971    c2.215,1.107,4.782-0.567,4.782-2.971V273.788z M144.087,170.168c0-1.271-0.811-2.566-1.864-2.998    c-2.215-1.107-4.782,0.594-4.782,2.998v6.617c0,1.27,0.811,2.566,1.865,2.999c2.214,1.107,4.781-0.594,4.781-2.999V170.168z     M144.087,143.614c0-1.27-0.811-2.566-1.864-2.999c-2.215-1.107-4.782,0.596-4.782,2.999v6.646c0,1.242,0.811,2.539,1.865,2.971    c2.214,1.107,4.781-0.566,4.781-2.971V143.614z M144.087,117.061c0-1.242-0.811-2.566-1.864-2.971    c-2.215-1.107-4.782,0.566-4.782,2.971v6.646c0,1.242,0.811,2.565,1.865,2.972c2.214,1.107,4.781-0.568,4.781-2.972V117.061z     M165.427,118.52c1.27,0,2.565-0.838,2.998-1.891c1.107-2.215-0.594-4.754-2.998-4.754h-6.619c-1.27,0-2.566,0.811-2.998,1.863    c-1.107,2.215,0.594,4.781,2.998,4.781H165.427z M191.98,118.52c1.27,0,2.566-0.838,2.999-1.891    c1.107-2.215-0.595-4.754-2.999-4.754h-6.618c-1.27,0-2.566,0.811-2.998,1.863c-1.108,2.215,0.594,4.781,2.998,4.781H191.98z     M352.408,118.52c1.242,0,2.566-0.838,2.971-1.891c1.108-2.215-0.566-4.754-2.971-4.754h-6.646c-1.242,0-2.565,0.811-2.972,1.863    c-1.107,2.215,0.568,4.781,2.972,4.781H352.408z M378.961,118.52c1.242,0,2.566-0.838,2.972-1.891    c1.107-2.215-0.567-4.754-2.972-4.754h-6.645c-1.27,0-2.566,0.811-2.998,1.863c-1.082,2.215,0.594,4.781,2.998,4.781H378.961z     M384.174,133.188c0,1.27,0.812,2.565,1.865,2.998c2.215,1.081,4.78-0.594,4.78-2.998v-6.645c0-1.243-0.81-2.566-1.864-2.973    c-2.214-1.107-4.781,0.568-4.781,2.973V133.188z M384.174,159.74c0,1.242,0.812,2.566,1.865,2.973    c2.215,1.106,4.78-0.568,4.78-2.973v-6.645c0-1.242-0.81-2.566-1.864-2.971c-2.214-1.108-4.781,0.566-4.781,2.971V159.74z     M384.174,186.295c0,1.242,0.812,2.566,1.865,2.971c2.215,1.107,4.78-0.567,4.78-2.971v-6.646c0-1.242-0.81-2.566-1.864-2.971    c-2.214-1.107-4.781,0.567-4.781,2.971V186.295z M319.209,111.875c-0.918,0-1.891,0.459-2.484,1.107    c13.101-19.773,14.208-45.841,1.918-66.803c-4.7-8.022-11.13-14.91-18.774-20.178v56.645c0,1.838-1.485,3.322-3.322,3.322h-64.803    c-1.837,0-3.323-1.484-3.323-3.322V26.002c-7.645,5.268-14.074,12.155-18.774,20.178c-5.483,9.318-8.617,20.232-8.617,31.875    c0,17.449,7.077,33.226,18.477,44.652c4.538,4.51,9.751,8.373,15.505,11.372l0.054,0.026h0.054l0.027,0.027l0.055,0.027    l0.053,0.027l0.055,0.027c7.05,3.619,14.884,5.969,23.177,6.698l0.135,0.026l0.243,0.027h0.243l0.189,0.027l0.27,0.027h0.243    l0.243,0.026h0.026l0.703,0.054h0.107h0.108l0.486,0.027h0.216h0.027h0.243l0.243,0.027h0.243h0.054h0.189h0.243h0.242    l0.136,0.027h0.107h0.243h0.243h0.243h0.244h0.243h0.242h0.081l0.135-0.027h0.243h0.243h0.189h0.054h0.243l0.244-0.027h0.243    h0.026h0.216l0.486-0.027h0.108h0.135l0.676-0.054h0.026l0.244-0.026h0.242l0.271-0.027l0.188-0.027h0.243l0.243-0.027    l0.135-0.026c14.776-1.324,28.498-7.753,38.979-18.206c2.81-2.811,5.321-5.835,7.482-9.05l-0.026,0.081    c-1.107,2.215,0.566,4.781,2.971,4.781h6.646c1.27,0,2.566-0.838,2.999-1.891c1.08-2.215-0.596-4.754-2.999-4.754H319.209z     M359.647,235.24c1.837,0,3.323,1.486,3.323,3.322c0,1.838-1.486,3.323-3.323,3.323H297.95v28.579h83.632v-63.803H297.95v28.578    H359.647z" style="fill-rule:evenodd;clip-rule:evenodd;"/></g></g><g id="Layer_1"/></svg>