<?xml version="1.0" ?><svg viewBox="0 0 64 64" xmlns="http://www.w3.org/2000/svg"><title/><g data-name="15" id="_15"><path d="M50,5H22.08A5.08,5.08,0,0,0,17,10H14V6a1,1,0,0,0-1-1H9A1,1,0,0,0,8,6V22a1,1,0,0,0,1,1h4a1,1,0,0,0,1-1V18h3a5.07,5.07,0,0,0,5.06,5H28v8H27a1,1,0,0,0-1,1V60a1,1,0,0,0,1,1H37a1,1,0,0,0,1-1V32a1,1,0,0,0-1-1H36V23h5.93A5.07,5.07,0,0,0,47,17.93V16.67A3.68,3.68,0,0,1,50.67,13H56a1,1,0,0,0,1-1A7,7,0,0,0,50,5ZM12,21H10V7h2V21Zm2-9h3v4H14ZM29,33h7v2H28V33Zm7,22H28V37h8Zm-8,4V57h8v2Zm6-28H30V23h4ZM50.67,11A5.68,5.68,0,0,0,45,16.67v1.26A3.08,3.08,0,0,1,41.93,21H22.07A3.08,3.08,0,0,1,19,17.93V10.08A3.08,3.08,0,0,1,22.08,7H50a5,5,0,0,1,4.9,4Z"/><path d="M49,8H46.67A5.68,5.68,0,0,0,41,13.67v1.26A3.08,3.08,0,0,1,37.93,18H35a1,1,0,0,0,0,2h2.93A5.07,5.07,0,0,0,43,14.93V13.67A3.68,3.68,0,0,1,46.67,10H49a1,1,0,0,0,0-2Z"/><path d="M31,18H25a1,1,0,0,0,0,2h6a1,1,0,0,0,0-2Z"/><path d="M34,49a1,1,0,0,0,1-1V39a1,1,0,0,0-2,0v9A1,1,0,0,0,34,49Z"/><path d="M34,54a1,1,0,0,0,1-1V51a1,1,0,0,0-2,0v2A1,1,0,0,0,34,54Z"/></g></svg>