<?xml version="1.0" ?><!DOCTYPE svg  PUBLIC '-//W3C//DTD SVG 1.1//EN'  'http://www.w3.org/Graphics/SVG/1.1/DTD/svg11.dtd'><svg height="512px" style="enable-background:new 0 0 512 512;" version="1.1" viewBox="0 0 512 512" width="512px" xml:space="preserve" xmlns="http://www.w3.org/2000/svg" xmlns:xlink="http://www.w3.org/1999/xlink"><g id="_x36_75_x2C__Build_x2C__engineering_x2C__hammer_x2C__repair_x2C__service"><g><path d="M282.63,88.998c-33.201,0-66.4,0-99.601,0v57.232v0.082v8.863    c33.201,0,66.4,0,99.601,0C282.63,133.117,282.63,111.059,282.63,88.998 M300.104,145.897V98.305h-10.668v47.593H300.104z     M176.222,142.814V89.972c-16.781,4.556-30.533,11.446-41.646,20.197c-11.502,9.058-20.198,20.114-26.561,32.646H176.222z     M252.013,162.012h-38.368v88.266h38.368V162.012z M335.056,88.998h-28.144c0,22.061,0,44.119,0,66.178h28.144V88.998z     M252.013,394.357v-95.654h-38.368v95.654H252.013z M313.941,291.868c1.111,0.026,2.223,0.583,2.861,1.61    c3.278,5.111,7.529,9.336,12.752,12.197c4.807,2.64,10.502,4.14,17.059,4.14c6.807,0,13.613-2.251,19.42-6.085    c4.251-2.834,7.945-6.502,10.641-10.752h-42.257c-1.89,0-3.417-1.528-3.417-3.416v-30.117c0-1.89,1.527-3.418,3.417-3.418h42.257    c-2.695-4.278-6.39-7.945-10.641-10.752c-5.807-3.834-12.613-6.084-19.42-6.084c-6.557,0-12.252,1.501-17.059,4.141    c-5.14,2.805-9.335,6.945-12.586,11.945c-0.582,1.083-1.723,1.834-3.027,1.834c-54.065,0-108.131,0-162.224,0    c-1.111-0.027-2.222-0.584-2.861-1.584c-3.167-5.002-7.613-9.141-12.836-12.029c-5.028-2.752-10.807-4.307-16.975-4.307    c-7.195,0-13.919,2.14-19.475,5.836c-4.306,2.859-7.946,6.611-10.641,11h42.313c1.889,0,3.417,1.528,3.417,3.418v30.117    c0,1.888-1.529,3.416-3.417,3.416H88.929c2.723,4.391,6.335,8.141,10.641,10.975c5.556,3.695,12.28,5.862,19.475,5.862    c6.168,0,11.947-1.585,16.975-4.334c5.14-2.806,9.502-6.892,12.669-11.753c0.583-1.111,1.722-1.86,3.028-1.86    C205.811,291.868,259.876,291.868,313.941,291.868z M213.646,82.191h38.368v-5.779h-38.368V82.191z M236.149,118.781    c-0.861-0.834-2.028-1.361-3.306-1.361c-1.305,0-2.472,0.527-3.306,1.361c-0.862,0.861-1.39,2.028-1.39,3.306    c0,1.306,0.528,2.473,1.39,3.306c0.833,0.861,2,1.391,3.306,1.391c1.195,0,2.306-0.444,3.14-1.224l0.167-0.167    c0.833-0.833,1.362-2,1.362-3.306C237.511,120.81,236.983,119.643,236.149,118.781z M232.843,110.584    c3.167,0,6.057,1.309,8.141,3.363c2.056,2.084,3.362,4.973,3.362,8.14c0,3.196-1.306,6.058-3.362,8.141l-0.278,0.251    c-2.056,1.916-4.834,3.111-7.862,3.111c-3.167,0-6.056-1.277-8.14-3.362c-2.083-2.083-3.389-4.944-3.389-8.141    c0-3.167,1.306-6.056,3.389-8.14C226.759,111.893,229.648,110.584,232.843,110.584z M369.146,163.096h-0.223    c-2.306,0-4.39,0.916-5.89,2.444c-1.501,1.5-2.445,3.583-2.445,5.889l0.167,1.946c0,1.889-1.556,3.416-3.417,3.416h-0.111    c-2.307,0-4.39,0.918-5.891,2.445c-1.527,1.5-2.445,3.584-2.445,5.891c0,2.305,0.918,4.416,2.445,5.916    c1.501,1.501,3.584,2.447,5.891,2.447h65.372c2.306,0,4.39-0.946,5.918-2.447c1.5-1.5,2.445-3.611,2.445-5.916    c0-1.085-0.195-2.111-0.557-3.029l-0.11-0.221c-0.417-1-1.028-1.891-1.778-2.641c-0.861-0.807-1.278-2.001-1.028-3.223    l0.194-1.112l0.028-1.11c0-2.862-1.14-5.445-3-7.307c-1.89-1.891-4.474-3.029-7.335-3.029c-0.695,0-1.39,0.057-2.028,0.195    c-0.666,0.139-1.306,0.333-1.89,0.557c-0.556,0.221-1.194,0.305-1.834,0.221c-1.833-0.277-3.11-2.027-2.833-3.889l0.111-1.667    c0-2.862-1.14-5.474-3.028-7.335c-1.861-1.861-4.445-3.029-7.308-3.029c-1.833,0-3.527,0.473-5,1.279    c-1.473,0.806-2.75,1.973-3.668,3.361l-0.083,0.194c-0.973,1.585-3.084,2.11-4.696,1.112c-0.609-0.361-1.25-0.666-1.943-0.861    l-0.14-0.057c-0.694-0.194-1.472-0.277-2.278-0.277c-2.055,0-3.945,0.722-5.389,1.945c-1.418,1.223-2.445,2.89-2.807,4.777    C372.395,161.706,370.923,163.096,369.146,163.096z M177.333,271.197c-0.833-0.834-2.028-1.391-3.306-1.391    c-1.278,0-2.473,0.557-3.306,1.391c-0.833,0.833-1.362,2-1.362,3.306c0,1.277,0.528,2.444,1.362,3.306s2.028,1.391,3.306,1.391    c1.222,0,2.333-0.473,3.167-1.252l0.139-0.139c0.833-0.861,1.362-2.028,1.362-3.306    C178.695,273.197,178.167,272.03,177.333,271.197z M174.028,263c3.167,0,6.057,1.279,8.14,3.363    c2.084,2.084,3.361,4.944,3.361,8.14c0,3.167-1.277,6.058-3.361,8.14l-0.278,0.224c-2.056,1.944-4.834,3.11-7.862,3.11    c-3.167,0-6.057-1.277-8.14-3.361c-2.084-2.055-3.362-4.945-3.362-8.112c0-3.195,1.278-6.056,3.362-8.14    C167.971,264.279,170.86,263,174.028,263z M294.938,271.197c-0.833-0.834-2-1.391-3.307-1.391c-1.277,0-2.444,0.557-3.306,1.391    c-0.834,0.833-1.361,2-1.361,3.306c0,1.277,0.527,2.444,1.361,3.306c0.861,0.861,2.028,1.391,3.306,1.391    c1.223,0,2.334-0.473,3.167-1.252l0.14-0.139c0.861-0.861,1.389-2.028,1.389-3.306    C296.326,273.197,295.799,272.03,294.938,271.197z M41.532,415.611c-1.889,0-3.417-1.557-3.417-3.417    c0-1.89,1.528-3.418,3.417-3.418H348.92c1.889,0,3.417,1.528,3.417,3.418c0,1.86-1.528,3.417-3.417,3.417H41.532z     M221.536,435.587c-1.889,0-3.417-1.528-3.417-3.418c0-1.86,1.528-3.416,3.417-3.416h212.704c1.89,0,3.418,1.556,3.418,3.416    c0,1.89-1.528,3.418-3.418,3.418H221.536z M455.993,435.587c-1.86,0-3.417-1.528-3.417-3.418c0-1.86,1.557-3.416,3.417-3.416    h26.588c1.89,0,3.418,1.556,3.418,3.416c0,1.89-1.528,3.418-3.418,3.418H455.993z M29.419,434.975    c-1.861,0-3.417-1.526-3.417-3.389c0-1.89,1.556-3.418,3.417-3.418h100.795c1.889,0,3.417,1.528,3.417,3.418    c0,1.862-1.529,3.389-3.417,3.389H29.419z M368.063,415.611c-1.891,0-3.418-1.557-3.418-3.417c0-1.89,1.527-3.418,3.418-3.418    h26.588c1.889,0,3.416,1.528,3.416,3.418c0,1.86-1.527,3.417-3.416,3.417H368.063z M291.631,263c3.195,0,6.058,1.279,8.141,3.363    s3.361,4.944,3.361,8.14c0,3.167-1.278,6.058-3.361,8.14l-0.25,0.224c-2.056,1.944-4.834,3.11-7.891,3.11    c-3.166,0-6.057-1.277-8.112-3.361c-2.084-2.055-3.39-4.945-3.39-8.112c0-3.195,1.306-6.056,3.361-8.14    C285.574,264.279,288.465,263,291.631,263z" style="fill-rule:evenodd;clip-rule:evenodd;"/></g></g><g id="Layer_1"/></svg>